{"title":"Appaloosa.[x264](AC3)(5.1 ch)Swe_sub.mkv","uid":5213390,"size":1888906176,"categoryP":"video","categoryS":"movies","magnet":"?xt=urn:btih:5713284abe550628ec594ba5afed0ff87b134f0a&amp;dn=Appaloosa.%5Bx264%5D%28AC3%29%285.1+ch%29Swe_sub.mkv&amp;tr=udp%3A%2F%2Ftracker.openbittorrent.com%3A80&amp;tr=udp%3A%2F%2Fopen.demonii.com%3A1337&amp;tr=udp%3A%2F%2Ftracker.coppersurfer.tk%3A6969&amp;tr=udp%3A%2F%2Fexodus.desync.com%3A6969","seeders":0,"leechers":0,"uploader":"Zen_Bud","files":-1,"time":1260695920,"description":"\n\n\nGeneral\nComplete name                    : Appaloosa.mkv\nFormat                           : Matroska\nFile size                        : 1.76 GiB\nDuration                         : 1h 55mn\nOverall bit rate                 : 2 182 Kbps\n\n\nVideo\nID                               : 1\nFormat                           : AVC\n\nCodec ID                         : V_MPEG4/ISO/AVC\nDuration                         : 1h 55mn\nBit rate                         : 1 499 Kbps\nNominal bit rate                 : 1 537 Kbps\nWidth                            : 720 pixels\nHeight                           : 512 pixels\nDisplay aspect ratio             : 1.406\nFrame rate                       : 25.000 fps\nResolution                       : 24 bits\nColorimetry                      : 4:2:0\nScan type                        : Progressive\nBits/(Pixel*Frame)               : 0.163\nStream size                      : 1.21 GiB (69%)\nWriting library                  : x264 core 79\n\n\nAudio\nID                               : 2\nFormat                           : AC-3\nFormat/Info                      : Audio Coding 3\nCodec ID                         : A_AC3\nDuration                         : 1h 55mn\nBit rate mode                    : Constant\nBit rate                         : 640 Kbps\nChannel(s)                       : 6 channels\nChannel positions                : Front: L C R, Surround: L R, LFE\nSampling rate                    : 48.0 KHz\nStream size                      : 528 MiB (29%)\n\n","torrent":{"xt":"urn:btih:5713284abe550628ec594ba5afed0ff87b134f0a","amp;dn":"Appaloosa.%5Bx264%5D%28AC3%29%285.1+ch%29Swe_sub.mkv","amp;tr":["udp%3A%2F%2Ftracker.openbittorrent.com%3A80","udp%3A%2F%2Fopen.demonii.com%3A1337","udp%3A%2F%2Ftracker.coppersurfer.tk%3A6969","udp%3A%2F%2Fexodus.desync.com%3A6969"],"infoHash":"5713284abe550628ec594ba5afed0ff87b134f0a","infoHashBuffer":{"type":"Buffer","data":[87,19,40,74,190,85,6,40,236,89,75,165,175,237,15,248,123,19,79,10]},"announce":[],"urlList":[]}}